<svg xmlns="http://www.w3.org/2000/svg" fill-rule="evenodd" stroke-linejoin="round" stroke-miterlimit="2" clip-rule="evenodd" viewBox="0 0 501 179">
  <defs/>
  <path fill="none" d="M.7 0h500v178H.7z"/>
  <path fill-rule="nonzero" d="M233.8 97.9c0 1 0 1.7.2 2.3l.9 1.9.2.6c0 .2-.2.5-.5.7l-1.7 1.1c-.2.2-.4.2-.6.2-.3 0-.6 0-.8-.3a8 8 0 01-1-1.2l-.7-1.5a9.5 9.5 0 01-7.6 3.5 7 7 0 01-5.2-1.8 6.6 6.6 0 01-2-5c0-2.2.9-4 2.4-5.3 1.6-1.4 3.7-2 6.4-2a20.5 20.5 0 015.7.7V90c0-2-.4-3.3-1.2-4-.9-.9-2.3-1.3-4.2-1.3a20.6 20.6 0 00-6.5 1.5l-.4.2c-.4 0-.6-.3-.6-.8v-1.3c0-.4 0-.7.2-1l.7-.5c1-.4 2-.8 3.3-1.1 1.2-.4 2.6-.5 4-.5 3 0 5.3.7 6.8 2 1.4 1.5 2.1 3.6 2.1 6.4V98zm-10.5 4c.8 0 1.7-.2 2.6-.5 1-.3 1.8-1 2.5-1.7.4-.5.7-1 .9-1.6l.2-2.3v-1a21.6 21.6 0 00-4.8-.7c-1.7 0-3 .4-3.8 1-.9.8-1.3 1.7-1.3 3s.3 2.2 1 2.8c.6.6 1.5 1 2.7 1zm20.7 2.7c-.4 0-.8 0-1-.2l-.5-1-6-20-.3-1c0-.5.2-.7.6-.7h2.5c.5 0 .9 0 1 .3.3.1.4.5.6 1l4.3 17 4-17c.2-.5.3-.9.5-1 .2-.2.6-.3 1-.3h2.1c.5 0 .9 0 1 .3.3.1.4.5.6 1l4 17.3L263 83c.2-.5.3-.9.5-1 .2-.2.6-.3 1-.3h2.4c.4 0 .7.2.7.7v.4l-.3.6-6.2 20c-.1.5-.3.8-.5 1l-1 .2h-2.2c-.5 0-.9 0-1-.2-.3-.2-.4-.5-.6-1l-4-16.7-4 16.6c0 .5-.2.9-.4 1-.2.2-.6.3-1 .3H244zm33.2.7a17 17 0 01-7-1.5l-.7-.7-.2-.7V101c0-.6.2-.8.6-.8h.5l.6.3a14 14 0 006 1.2 7 7 0 003.7-.8c.9-.6 1.3-1.4 1.3-2.5 0-.7-.2-1.3-.7-1.8-.4-.5-1.3-1-2.6-1.4l-3.7-1.1a7.9 7.9 0 01-4.1-2.7 6.2 6.2 0 011.2-8.7c.8-.6 1.7-1 2.7-1.3a11.3 11.3 0 015-.4 28.4 28.4 0 013.1.7l1.1.5.8.6c.2.3.2.5.2.9V85c0 .6-.2.8-.6.8-.2 0-.5 0-1-.3-1.4-.6-3-1-4.9-1-1.5 0-2.6.3-3.4.7-.8.5-1.2 1.3-1.2 2.3 0 .8.2 1.4.7 1.9.5.5 1.5 1 2.9 1.4L281 92c1.9.6 3.2 1.4 4 2.4a6.6 6.6 0 01.5 6.6 7 7 0 01-1.8 2.3c-.8.7-1.8 1.1-2.9 1.5-1.2.3-2.4.5-3.7.5z"/>
  <path d="M282.1 117.9a57 57 0 01-69.9-5c-.8-.8 0-1.8.9-1.2a77.5 77.5 0 0067.8 4.2c1.4-.6 2.6 1 1.2 2z"/>
  <path d="M285.6 113.8c-1-1.4-7.1-.6-10-.3-.7.1-.9-.6-.1-1.2 4.8-3.4 12.8-2.4 13.8-1.2.9 1.1-.3 9.1-4.9 13-.7.5-1.3.2-1-.6 1-2.5 3.3-8.3 2.2-9.7z"/>
</svg>
