<?xml version="1.0" encoding="UTF-8" standalone="no"?>
<!DOCTYPE svg PUBLIC "-//W3C//DTD SVG 1.1//EN" "http://www.w3.org/Graphics/SVG/1.1/DTD/svg11.dtd">
<svg width="100%" height="100%" viewBox="0 0 500 179" version="1.1" xmlns="http://www.w3.org/2000/svg" xmlns:xlink="http://www.w3.org/1999/xlink" xml:space="preserve" xmlns:serif="http://www.serif.com/" style="fill-rule:evenodd;clip-rule:evenodd;stroke-linejoin:round;stroke-miterlimit:2;">
    <g transform="matrix(1,0,0,1,-1070,0)">
        <g id="Artboard1" transform="matrix(0.5,0,0,0.422219,1070,0)">
            <rect x="0" y="0" width="1000" height="421.8" style="fill:none;"/>
            <g transform="matrix(0.1736,0,0,0.205581,413.009,167.543)">
                <path d="M76.8,416L76.8,132.5L2.2,132.5L2.2,416L76.8,416ZM572,418.8L572,349.3C561,349.3 551.8,348.7 545.1,347.6C537.3,346.5 531.4,343.7 527.5,339.8C523.5,335.8 521,330.3 519.6,323C518.5,316 517.9,306.7 517.9,295.5L517.9,196.4L571.9,196.4L571.9,132.4L517.9,132.4L517.9,21.9L443.1,21.9L443.1,296.2C443.1,319.4 445.1,339 449.1,354.7C452.9,370.1 459.7,382.7 468.9,392.3C479.014,402.2 491.577,409.24 505.3,412.7C520.4,416.9 539.5,418.9 562.2,418.9L572,418.8ZM1000,416L1000,0L925.2,0L925.2,416L1000,416ZM371.1,160.2C350.4,137.8 321.3,126.6 284.3,126.6C266.3,126.6 250.1,130.3 235.3,137.6C220.809,144.687 208.147,155.023 198.3,167.8L194.1,173.1L194.1,132.5L120.4,132.5L120.4,416L194.7,416L194.7,265L194.7,270.4C195.5,243.7 202,224.1 214.3,211.4C226.592,198.449 243.746,191.196 261.6,191.4C283.2,191.4 299.7,198 310.6,210.9C321.3,223.9 326.9,242 326.9,265.3L326.9,415.7L402.2,415.7L402.2,254.9C402.5,214.6 391.9,182.6 371.2,160.2L371.1,160.2ZM886.6,273.7C886.6,253.2 882.9,234.2 875.9,216.2C868.817,198.942 858.651,183.117 845.9,169.5C832.83,155.961 817.099,145.27 799.7,138.1C781.7,130.5 761.9,126.9 740.3,126.9C701.248,126.771 663.705,142.177 636,169.7C608.242,197.345 592.737,235.025 593,274.2C593,294.7 596.6,314 604,331.9C618.145,367.526 646.329,395.818 681.9,410.1C700.3,417.9 720.7,421.8 742.6,421.8C805.9,421.8 845.1,393 868.6,366.1L814.8,325.2C796.353,345.263 770.354,356.757 743.1,356.9C722.1,356.9 704.8,352.1 691.6,342.3C678.401,332.582 668.907,318.642 664.7,302.8L663.9,300.3L886.6,300.3L886.6,273.7ZM664.4,247.7C664.4,226.9 688.2,190.7 739.5,190.5C790.8,190.5 814.8,226.6 814.8,247.3L664.4,247.7Z" style="fill-rule:nonzero;"/>
            </g>
            <g transform="matrix(0.347148,0,0,0.4111,412.666,167.543)">
                <path d="M0,3L39.4,3L39.4,42.3L0,42.3L0,3ZM38.4,208L38.4,66.2L1.1,66.2L1.1,208L38.4,208ZM286,209.4L286,174.6C280.5,174.6 275.9,174.3 272.6,173.8C268.6,173.2 265.7,171.8 263.7,169.9C261.7,167.9 260.5,165.1 259.8,161.5C259.2,158 258.9,153.3 258.9,147.7L258.9,98.3L285.9,98.3L285.9,66.3L258.9,66.3L258.9,10.9L221.6,10.9L221.6,148.1C221.6,159.7 222.6,169.5 224.6,177.4C226.4,185.1 229.9,191.4 234.4,196.2C239.485,201.165 245.803,204.686 252.7,206.4C260.2,208.4 269.7,209.4 281.1,209.4L286,209.4ZM500,208L500,0L462.6,0L462.6,208L500,208ZM185.6,80.1C175.2,68.9 160.6,63.3 142.2,63.3C125.472,63.185 109.593,70.792 99.2,83.9L97,86.5L97,66.3L60.3,66.3L60.3,208L97.4,208L97.4,132.5L97.4,135.2C97.9,121.9 101.1,112.1 107.3,105.7C113.434,99.237 121.99,95.612 130.9,95.7C141.7,95.7 149.9,99 155.4,105.5C161.204,113.335 164.072,122.966 163.5,132.7L163.5,207.9L201.2,207.9L201.2,127.4C201.4,107.3 196,91.3 185.7,80.1L185.6,80.1ZM443.3,136.9C443.3,126.6 441.4,117.1 437.9,108.1C431.167,90.383 417.355,76.244 399.8,69.1C390.8,65.3 381,63.5 370.2,63.5C369.999,63.498 369.798,63.498 369.598,63.498C329.551,63.498 296.598,96.451 296.598,136.498C296.598,136.698 296.598,136.899 296.6,137.1C296.5,147.4 298.3,157 302,165.9C309.066,183.757 323.179,197.942 341,205.1C350.607,209.05 360.913,211.022 371.3,210.9C395.397,211.579 418.559,201.358 434.3,183.1L407.4,162.6C391.612,179.735 365.678,183.356 345.8,171.2C339.21,166.32 334.48,159.332 332.4,151.4L332,150.1L443.3,150.1L443.3,136.8L443.3,136.9ZM332.2,123.9C332.2,113.4 344.1,95.3 369.8,95.2C395.4,95.2 407.4,113.3 407.4,123.7L332.2,123.8L332.2,123.9Z" style="fill-rule:nonzero;"/>
            </g>
        </g>
    </g>
</svg>
