<svg xmlns="http://www.w3.org/2000/svg" fill-rule="evenodd" stroke-linejoin="round" stroke-miterlimit="2" clip-rule="evenodd" viewBox="0 0 501 179">
  <defs/>
  <path fill="none" d="M.7 0h500v178H.7z"/>
  <path fill-rule="nonzero" d="M81.6 68.3c0-4.3-4.2-5.4-7.4-5.4v.6c2 0 3.5.7 3.5 2.2 0 .9-.7 2.1-2.7 2.1-2.4-.2-4.7-.8-7.1-1.6a23 23 0 00-7.4-2C56 64.2 53 67.4 53 71a5 5 0 003.2 4.8l.3-.4c-.5-.5-1.1-.9-1.1-2.3 0-.8.8-2.3 3-2.3 2 0 4.5.8 8 2l8 1.6v6.7L71.3 84v.2l3.2 2.8v9.3a10 10 0 01-5.4 1.3 11 11 0 01-8.5-3.4l9-4.4V75l-10.9 4.8c.8-2.8 3.2-4.8 5.6-6L64 73c-6.6 1.7-12.4 7.7-12.4 15.1 0 8.6 7.2 15.1 15.1 15.1 8.7 0 14.4-6.9 14.4-14h-.5c-1.1 2.7-3 5-5.6 6.7v-8.9l3.4-2.8v-.2L75 81.3v-6.8c3.3 0 6.6-2.1 6.6-6.3v.1zM62.8 92l-2.6 1.3a13 13 0 01-2.4-8.2c0-1.6 0-3.3.4-4.5l4.6-2V92zm22.8 5l-2.8 2.2.5.5 1.3-1.1 4.8 4.3 6.4-4.3-.2-.4-1.7 1-2.2-2.2V82.3l1.7-1.3 3.7 3v13.3c0 8.2-1.7 9.5-5.4 10.8v.6c6 .2 11.7-1.7 11.7-12.3V82.1l2-1.5-.5-.4-1.8 1.3-5.4-4.5-6 4.5V63.8h-.4l-7.6 5.1v.4c.8.5 2.2 1 2.2 3.3L85.6 97zm39.6-2.4l-5.3 4.1-5.5-4.3v-2.6l10.1-7v-.2l-5.1-7.6-11.2 6v14.3l-2.1 1.7.4.4 2-1.5 7.3 5.4 9.7-7.8-.2-.8-.1-.1zM114.4 91V80.4l.4-.2 4.8 7.5-5.2 3.3zm52.1-24.8l-.4-1.9h-.5c-.6 1.8-1.5 2.7-3.6 2.7-2 0-3.2-1.2-4.1-2l-6.4 7.1.5.4 2.2-1.9a8 8 0 005.4 2.2v17.9l-12.8-21.8c-1-1.7-2.6-4-5.5-4-3.5 0-6.6 3-6.2 7.7h.7c.2-1.3.8-2.8 2.4-2.8 1 0 2.2 1 2.8 2.2V79c-4 0-6.5 1.7-6.5 5 0 1.7.9 4.3 3.5 5v-.5c-.4-.4-.6-1-.6-1.5 0-1 .8-2 2.4-2h1v9.2c-4.6 0-8.2 2.5-8.2 6.9 0 4 3.4 6 7.3 5.8v-.4c-2.4-.2-3.4-1.4-3.4-2.9 0-1.9 1.3-2.8 3-2.8s3.2 1.2 4.3 2.4l6.3-6.9-.5-.4-1.5 1.7c-1.7-1.8-4-3-6.4-3.2V72.8l17.2 30.3h1.3V72.9c3.5 0 6.4-3 6.4-6.5l-.1-.2zm15.8 28.5l-5.4 4.1-5.4-4.3v-2.6l10.1-7v-.2l-5.2-7.7-11.2 6v14.3l-2.1 1.7.4.4 2-1.5 7.3 5.4 9.7-7.8-.2-.8zM171.5 91V80.4l.4-.2 4.8 7.5-5.2 3.3zm46-11.7l-1.5 1.1L212 77l-4.8 4.3 2 1.9v16.2l-5.2-3.2V82.7l1.8-1-5-4.8-4.8 4.4 2 1.9v15.6l-.7.4-4.5-3.2V83c0-3-1.6-4-3.3-5-1.5-1-2.4-1.7-2.4-3.2 0-1.3 1.3-2 2-2.4V72c-1.7 0-6.3 1.7-6.3 5.8 0 2.2 1 3 2.2 4.1 1.1 1.1 2.1 2 2.1 4v12.4l-2.4 1.8.5.4 2.2-1.7 5 4.3 5.3-3.7 6 3.7 11.5-6.7V82l2.9-2.1-.5-.5zm40.2-11.9l-2.1 2-4.8-4.4-7.2 5.2v-4.8h-.5l.1 35-4-.7-.5-29.2c0-2.2-1.5-5.2-5.4-5.2a6.3 6.3 0 00-6.5 6h.7c.2-1.2.8-2.4 2.1-2.4s2.4.8 2.4 3.7V81c-3.9.3-6.3 2.4-6.3 5.2 0 1.8.9 4.4 3.5 4.4v-.5c-.9-.4-1-1-1-1.5 0-1.3 1-1.7 2.7-1.7h.9v13.4a6 6 0 00-4.6 6c0 3.7 2.9 6.3 7.2 6.3 3 0 5.6-.4 8.2-1 2.1-.5 5-1.1 6.3-1.1 1.7 0 2.4.8 2.4 2 0 1.4-.7 2-1.6 2.3v.4c3.5-.6 5.6-2.8 5.6-6s-3.2-5.2-6.7-5.2a59 59 0 00-8 1l-6.8 1.1c-1.6 0-3.2-.6-3.2-2.8 0-1.7 1.4-3.1 5-3.1 2 0 4.4.1 6.8.7 2.6.7 5 1.3 7.1 1.3 3.2 0 6-1 6-5.6V70.1l2.7-2.3-.5-.4zM249 80.6c-.7.7-1.6 1.3-2.6 1.3s-2.2-.6-2.6-1.3v-9.5l2.2-1.5 3 2.8v8.2zm0 6.5c-.7-.6-1.7-1-2.6-1-1 0-2.2.6-2.6 1v-5.6c.4.4 1.5 1 2.6 1 1 0 2.1-.6 2.6-1v5.6zm0 10.2c0 1.7-1.1 3.4-3.5 3.4h-1.7V88.1c.4-.4 1.5-1.2 2.6-1.2 1 0 2 .8 2.6 1.2v9.3-.1zm29.6-15.4l-7-5L261 83v14l-2.2 1.8.3.4 1.6-1.3 7 5.2 10.8-6.5V82zm-11.7 13.6V80.1l5.4 3.8v15.3l-5.4-3.7zM299 77.4h-.4c-.7.4-1.3.8-2 .8-.8 0-1.9-.4-2.3-1h-.4l-3.7 4-3.7-4-6.5 4.3.2.4 1.7-1 2.2 2.3v13.6l-2.8 2.2.5.4 1.2-1 5.2 4.3 6.7-4.5-.2-.5-2 1.1-2.5-2.2v-15c1 1 2.4 2 3.9 2 3 .2 4.8-2.8 5-6.2zM325 98l-7.4 5-10-15 7.2-11h.4c.8.8 2.1 1.6 3.7 1.6a4 4 0 003.1-1.6h.5c-.2 4.3-3.2 6.8-5.4 6.8-2.1 0-3.2-1-4.5-1.7l-.7 1 11 16 2-1.3v.3-.1zm-23.8-1l-2.7 2.1.4.5 1.3-1.1 4.8 4.3 6.4-4.3-.4-.4-1.7 1-2.2-2.2V63.8h-.2l-7.9 5.1v.4c.8.5 2.2.8 2.2 3.3V97zm59.7-28.8c0-4.3-4.2-5.4-7.4-5.4v.6c2 0 3.5.7 3.5 2.2 0 .9-.7 2.1-2.6 2.1-2.4-.2-4.8-.8-7.2-1.6-2.8-1-5.3-1.8-7.5-1.8-4.4 0-7.4 3.2-7.4 7 0 3.1 2.4 4.2 3.3 4.7l.2-.5c-.6-.4-1.3-.8-1.3-2.1 0-.8.8-2.4 3-2.4 2 0 4.5.9 8 2l8 1.7v6.7l-3.2 2.8v.2l3.2 2.8v9.3A10 10 0 01348 98c-3.1.2-6.3-1-8.4-3.4l8.8-4.4V75l-10.8 4.8c1.2-2.7 3.2-4.8 5.6-6.3l-.2-.4c-6.4 1.7-12.3 7.5-12.3 14.9 0 8.6 7.2 15.1 15.1 15.1a14 14 0 0014.3-14h-.4c-1.2 2.7-3.1 5-5.6 6.7v-9l3.4-2.7v-.3l-3.2-2.8v-6.4c3.2 0 6.4-2.2 6.4-6.4v.1zM342 92l-2.5 1.3a13 13 0 01-2.4-8.2c0-1.6.2-3.3.6-4.5l4.6-2L342 92zm26.5-25.8h-.2l-4.4 3.5v.3l3.7 4h.4l4.3-3.6V70l-4-4h.2zm6.5 32l-1.7 1-2.2-2.2V82.2l2.2-1.6-.5-.4-1.5 1.3-3.9-4.5-6.3 4.3.5.6 1.5-1 2 2.3v14l-2.9 2.2.3.4 1.5-1 4.8 4.3 6.4-4.3-.2-.6zm36.1-.3l-1.6 1.1-2.3-2.2V82.2l2.2-1.8-.4-.4-1.8 1.5-5-4.5-6.5 4.5-4.9-4.5-6 4.5-4-4.5-6.2 4.3.2.6 1.5-1 2.2 2.3v14l-1.8 1.8 5 4.1 4.7-4.3-2-2V82.2l2-1.4 3.2 3v13l-1.7 1.8 5 4.1 4.8-4.4-2-1.9V82.1l1.7-1 3.4 3v13l-1.5 1.5 5 4.5 6.7-4.5v-.7h.1zm18.8-3.2l-5.4 4-5.4-4.2v-2.6l10.2-7v-.2L424 77l-11.2 6v14.6l7.4 5.6 9.7-7.8-.3-.7h.2zM419 91V80.4l.4-.2 4.8 7.5-5.2 3.3zm30.5-2l-4.1-3.2a11 11 0 003.9-7.8v-1.3h-.5c-.4 1-1.3 2.2-3 2.2-1.8 0-2.8-.8-4-2.2l-9.7 5.5v7.7l3.7 2.8c-3.7 3.2-4.3 5.5-4.3 7.2 0 2.2 1 3.7 2.8 4.3l.2-.5c-.5-.4-.9-.6-.9-1.6 0-.8.8-1.8 2.6-1.8 2.2 0 3.5 1.5 4.1 2.2l9.3-5.6V89h-.2zm-2.4-6.4c-1.8 2.6-4 4.7-6.7 6.5l-2.4-2v-7.6a6.5 6.5 0 009 3zm-3.7 17.2a7.2 7.2 0 00-6.3-4c-.6 0-2.4 0-4 1 1-1.7 3.9-4.8 7.5-7l2.6 2.3.2 7.7z"/>
</svg>
