<?xml version="1.0" encoding="UTF-8" standalone="no"?>
<!DOCTYPE svg PUBLIC "-//W3C//DTD SVG 1.1//EN" "http://www.w3.org/Graphics/SVG/1.1/DTD/svg11.dtd">
<svg width="100%" height="100%" viewBox="0 0 500 179" version="1.1" xmlns="http://www.w3.org/2000/svg" xmlns:xlink="http://www.w3.org/1999/xlink" xml:space="preserve" xmlns:serif="http://www.serif.com/" style="fill-rule:evenodd;clip-rule:evenodd;stroke-linejoin:round;stroke-miterlimit:2;">
    <g transform="matrix(1,0,0,1,-535,0)">
        <g id="Artboard2" transform="matrix(1.18966,0,0,1.18966,534.987,0)">
            <rect x="0.011" y="0" width="420.289" height="149.7" style="fill:none;"/>
            <clipPath id="_clip1">
                <rect x="0.011" y="0" width="420.289" height="149.7"/>
            </clipPath>
            <g clip-path="url(#_clip1)">
                <g transform="matrix(0.840578,0,0,0.840578,0.0111111,46.9008)">
                    <path d="M37.5,7.2C37.5,1.8 32.3,0.4 28.2,0.4L28.2,1.2C30.7,1.2 32.6,2 32.6,3.9C32.6,5 31.8,6.6 29.3,6.6C26.3,6.3 23.3,5.6 20.3,4.5C17.362,3.152 14.218,2.307 11,2C5.5,2 1.7,6.1 1.7,10.7C1.7,14.7 4.7,16.2 5.8,16.7L6.1,16.2C5.5,15.6 4.7,15.1 4.7,13.4C4.7,12.4 5.8,10.4 8.5,10.4C11,10.4 14.2,11.5 18.5,12.9L28.6,15L28.6,23.4L24.6,26.9L24.6,27.2L28.6,30.7L28.6,42.4C26.532,43.569 24.172,44.124 21.8,44C17.8,44.2 14,42.6 11.2,39.7L22.4,34.2L22.4,15.6L8.8,21.6C9.8,18.1 12.8,15.6 15.8,14L15.6,13.2C7.3,15.3 0,22.9 0,32.2C0,43 9,51.2 19,51.2C29.9,51.2 37,42.5 37,33.5L36.4,33.5C35.001,36.988 32.555,39.958 29.4,42L29.4,30.8L33.7,27.3L33.7,27L29.3,23.5L29.3,15C33.4,15 37.5,12.3 37.5,7L37.5,7.2ZM13.9,37L10.6,38.6C8.5,35.6 7.4,32 7.6,28.3C7.6,26.3 7.6,24.2 8.1,22.6L13.9,20.1L13.9,37ZM42.6,43.2L39.1,46L39.7,46.6L41.3,45.2L47.3,50.6L55.4,45.2L55.1,44.7L53,46L50.2,43.3L50.2,24.8L52.4,23.2L57,27L57,43.6C57,53.9 54.9,55.6 50.2,57.2L50.2,58C57.8,58.2 64.9,55.8 64.9,42.5L64.9,24.5L67.4,22.7L66.8,22.1L64.6,23.8L57.8,18.1L50.2,23.8L50.2,1.5L49.7,1.5L40.2,8L40.2,8.5C41.2,9.1 42.9,9.6 42.9,12.6L42.6,43.3L42.6,43.2ZM92.3,40.2L85.6,45.4L78.8,40L78.8,36.7L91.5,28L91.5,27.7L85,18.1L71,25.7L71,43.6L68.3,45.8L68.8,46.3L71.3,44.4L80.5,51.2L92.7,41.4L92.4,40.4L92.3,40.2ZM78.8,35.7L78.8,22.4L79.3,22.1L85.3,31.6L78.8,35.7ZM144.2,4.6L143.7,2.2L143.1,2.2C142.3,4.4 141.2,5.5 138.5,5.5C136.1,5.5 134.5,4.1 133.4,3L125.4,12L126,12.5L128.7,10.1C130.544,11.826 132.974,12.791 135.5,12.8L135.5,35.3L119.5,8C118.1,5.8 116.2,2.8 112.5,2.8C108.1,2.8 104.3,6.6 104.8,12.6L105.6,12.6C105.9,11 106.7,9.1 108.6,9.1C110,9.1 111.4,10.4 112.2,11.8L112.2,20.8C107.2,20.8 104,22.9 104,27C104,29.2 105.1,32.4 108.4,33.3L108.4,32.7C107.9,32.2 107.6,31.5 107.6,30.8C107.6,29.5 108.6,28.4 110.6,28.4L111.9,28.4L111.9,39.8C106.2,39.8 101.6,43 101.6,48.5C101.6,53.6 105.9,56.1 110.8,55.8L110.8,55.3C107.8,55 106.5,53.6 106.5,51.7C106.5,49.3 108.1,48.2 110.3,48.2C112.4,48.2 114.3,49.6 115.7,51.2L123.6,42.5L123,42L121.1,44.1C118.966,41.842 116.091,40.422 113,40.1L113,12.9L134.7,50.9L136.3,50.9L136.3,13C140.723,12.892 144.301,9.224 144.3,4.8L144.2,4.6ZM164,40.3L157.3,45.5L150.5,40.1L150.5,36.8L163.2,28.1L163.2,27.8L156.7,18.1L142.6,25.7L142.6,43.6L139.9,45.8L140.4,46.3L142.9,44.4L152.1,51.2L164.3,41.4L164,40.4L164,40.3ZM150.5,35.7L150.5,22.4L151,22.1L157,31.6L150.5,35.7ZM208.3,21L206.4,22.4L201.2,18.1L195.2,23.5L197.7,25.9L197.7,46.3L191.2,42.3L191.2,25.3L193.4,24L187.1,18L181.1,23.5L183.6,25.9L183.6,45.5L182.8,46L177.1,42L177.1,25.7C177.1,21.9 175.1,20.7 173,19.4C171.1,18.1 170,17.2 170,15.4C170,13.7 171.6,12.9 172.5,12.4L172.5,11.8C170.3,11.8 164.5,14 164.5,19.1C164.5,21.9 165.9,22.9 167.3,24.3C168.7,25.7 170,26.7 170,29.2L170,44.9L167,47.1L167.6,47.7L170.3,45.5L176.5,50.9L183.3,46.3L190.9,50.9L205.3,42.5L205.3,24.3L208.9,21.6L208.3,21ZM258.8,6.1L256.1,8.5L250.1,3.1L241.1,9.6L241.1,3.6L240.4,3.6L240.6,47.6L235.5,46.6L234.9,9.9C234.9,7.2 233,3.4 228.1,3.4C223.802,3.288 220.162,6.704 220,11L220.8,11C221.1,9.4 221.8,8 223.5,8C225.1,8 226.5,9 226.5,12.6L226.5,23.2C221.6,23.5 218.6,26.2 218.6,29.7C218.6,31.9 219.7,35.2 223,35.2L223,34.6C221.9,34.1 221.6,33.3 221.6,32.7C221.6,31.1 223,30.5 225.1,30.5L226.2,30.5L226.2,47.4C222.2,48.7 220.5,51.7 220.5,55C220.5,59.6 224.1,62.9 229.5,62.9C233.3,62.9 236.5,62.3 239.8,61.5C242.5,61 246.1,60.2 247.7,60.2C249.9,60.2 250.7,61.2 250.7,62.6C250.7,64.5 249.9,65.3 248.7,65.6L248.7,66.1C253.1,65.3 255.8,62.6 255.8,58.5C255.8,54.5 251.8,52 247.4,52C245.2,52 240.6,52.8 237.4,53.4L228.7,54.7C226.7,54.7 224.7,53.9 224.7,51.2C224.7,49 226.5,47.2 231.1,47.2C233.6,47.2 236.6,47.4 239.5,48.2C242.8,49 245.8,49.8 248.5,49.8C252.5,49.8 256.1,48.5 256.1,42.8L256.1,9.4L259.4,6.6L258.8,6.1ZM247.7,22.7C246.9,23.5 245.7,24.3 244.4,24.3C243.1,24.3 241.7,23.5 241.2,22.7L241.2,10.7L243.9,8.8L247.7,12.4L247.7,22.7ZM247.7,30.8C246.787,29.994 245.618,29.533 244.4,29.5C243.1,29.5 241.7,30.3 241.2,30.8L241.2,23.8C241.7,24.3 243.1,25.1 244.4,25.1C245.8,25.1 247.1,24.3 247.7,23.8L247.7,30.8ZM247.7,43.6C247.7,45.8 246.3,47.9 243.3,47.9L241.2,47.9L241.2,32C241.7,31.5 243.1,30.6 244.4,30.6C245.8,30.6 246.9,31.5 247.7,32L247.7,43.7L247.7,43.6ZM284.9,24.3L276.2,18.1L262.9,25.7L262.9,43.3L260.2,45.5L260.5,46L262.6,44.4L271.3,50.9L284.9,42.8L284.9,24.3ZM270.2,41.4L270.2,22L277,26.8L277,46L270.2,41.4ZM310.7,18.6L310.2,18.6C309.3,19.1 308.5,19.6 307.7,19.6C306.7,19.6 305.3,19.1 304.7,18.3L304.2,18.3L299.6,23.5L294.9,18.3L286.8,23.8L287.1,24.3L289.2,22.9L292,25.9L292,43L288.4,45.8L289,46.3L290.6,44.9L297.1,50.4L305.5,44.7L305.3,44.1L302.8,45.5L299.6,42.8L299.6,23.8C300.9,25.1 302.6,26.5 304.5,26.5C308.3,26.7 310.5,22.9 310.7,18.6ZM343.3,44.6L334,51L321.5,32L330.5,18.2L331,18.2C332,19.2 333.7,20.3 335.6,20.3C337.19,20.277 338.678,19.496 339.6,18.2L340.2,18.2C339.9,23.6 336.2,26.8 333.4,26.8C330.7,26.8 329.4,25.5 327.7,24.7L326.9,26L340.6,46L343.3,44.4L343.3,44.7L343.3,44.6ZM313.4,43.3L310,46L310.5,46.6L312.2,45.2L318.2,50.6L326.2,45.2L325.7,44.7L323.6,46L320.8,43.3L320.8,1.5L320.6,1.5L310.7,8L310.7,8.5C311.7,9.1 313.4,9.4 313.4,12.6L313.4,43.3ZM388.4,7.2C388.4,1.8 383.2,0.4 379.1,0.4L379.1,1.2C381.6,1.2 383.5,2 383.5,3.9C383.5,5 382.7,6.6 380.2,6.6C377.2,6.3 374.2,5.6 371.2,4.5C367.7,3.4 364.5,2.3 361.8,2.3C356.3,2.3 352.5,6.3 352.5,11C352.5,15 355.5,16.4 356.6,17L356.9,16.4C356.1,15.9 355.2,15.4 355.2,13.7C355.2,12.7 356.3,10.7 359,10.7C361.5,10.7 364.7,11.8 369,13.2L379.1,15.3L379.1,23.8L375.1,27.3L375.1,27.6L379.1,31.1L379.1,42.8C377.061,43.95 374.739,44.505 372.4,44.4C368.4,44.6 364.4,43 361.8,40.1L372.9,34.6L372.9,15.6L359.3,21.6C360.8,18.3 363.3,15.6 366.3,13.7L366.1,13.2C358,15.3 350.6,22.7 350.6,31.9C350.6,42.8 359.6,50.9 369.6,50.9C380.5,50.9 387.6,42.2 387.6,33.3L387,33.3C385.583,36.751 383.139,39.684 380,41.7L380,30.5L384.3,27L384.3,26.7L380.3,23.2L380.3,15.1C384.3,15.1 388.3,12.4 388.3,7.1L388.4,7.2ZM364.7,37L361.5,38.6C359.4,35.6 358.3,32 358.5,28.3C358.5,26.3 358.8,24.2 359.3,22.6L365,20.1L364.7,37ZM398,4.5L397.7,4.5L392.2,9L392.2,9.3L396.8,14.4L397.3,14.4L402.8,9.8L402.8,9.5L397.8,4.4L398,4.5ZM406.1,44.7L404,46L401.2,43.3L401.2,24.6L404,22.6L403.4,22.1L401.5,23.8L396.6,18.1L388.7,23.5L389.3,24.3L391.2,22.9L393.6,25.9L393.6,43.6L390.1,46.3L390.4,46.8L392.3,45.5L398.3,50.9L406.4,45.5L406.1,44.7ZM451.5,44.4L449.5,45.8L446.6,43L446.6,24.6L449.3,22.4L448.8,21.9L446.6,23.8L440.4,18.1L432.2,23.8L426,18.1L418.4,23.8L413.4,18.1L405.6,23.5L405.9,24.3L407.8,22.9L410.5,25.9L410.5,43.6L408.3,45.8L414.5,50.9L420.5,45.5L418,43L418,24.6L420.4,22.9L424.5,26.7L424.5,43L422.3,45.2L428.6,50.4L434.6,44.9L432.1,42.5L432.1,24.5L434.3,23.2L438.6,27L438.6,43.3L436.7,45.3L443,50.9L451.4,45.2L451.4,44.4L451.5,44.4ZM475.1,40.4L468.3,45.4L461.5,40.1L461.5,36.8L474.3,28.1L474.3,27.8L467.8,18.1L453.7,25.7L453.7,44L463,51L475.2,41.2L474.9,40.4L475.1,40.4ZM461.5,35.7L461.5,22.4L462.1,22.1L468.1,31.6L461.5,35.7ZM499.8,33.3L494.7,29.2C497.6,26.8 499.4,23.2 499.6,19.4L499.6,17.8L499,17.8C498.5,19.1 497.4,20.5 495.2,20.5C493,20.5 491.7,19.5 490.3,17.8L478,24.6L478,34.3L482.6,37.9C478,41.9 477.2,44.7 477.2,46.9C477.2,49.6 478.5,51.5 480.7,52.3L481,51.7C480.4,51.2 479.9,50.9 479.9,49.6C479.9,48.7 480.9,47.4 483.2,47.4C485.9,47.4 487.5,49.3 488.3,50.1L500,43.1L500,33.3L499.7,33.3L499.8,33.3ZM496.8,25.1C494.6,28.4 491.8,31.1 488.4,33.3L485.4,30.8L485.4,21.3C486.728,24.222 489.655,26.106 492.865,26.106C494.24,26.106 495.593,25.76 496.8,25.1ZM492.2,46.8C490.737,43.755 487.678,41.78 484.3,41.7C483.5,41.7 481.3,41.7 479.2,43C480.5,40.9 484.1,37 488.7,34.3L492,37.1L492.2,46.8Z" style="fill-rule:nonzero;"/>
                </g>
            </g>
        </g>
    </g>
</svg>
