<svg xmlns="http://www.w3.org/2000/svg" fill-rule="evenodd" stroke-linejoin="round" stroke-miterlimit="2" clip-rule="evenodd" viewBox="0 0 501 179">
  <defs/>
  <path fill="none" d="M.7 0h500v178H.7z"/>
  <path fill-rule="nonzero" d="M250.4 100.5c.3-.8.5-2 .5-3.7v-7.2a11 11 0 00-.5-3.6c-.3-.7-.8-1.1-1.5-1.1s-1.2.4-1.5 1.1c-.3.8-.4 2-.4 3.6v7.2c0 1.7.1 3 .4 3.7.3.7.8 1 1.5 1s1.2-.3 1.5-1m-5.8 3.5c-1-.6-1.7-1.7-2.2-3.2-.4-1.5-.6-3.4-.6-5.9v-3.3c0-2.5.2-4.5.7-6a6 6 0 012.4-3.2c1-.7 2.4-1 4.1-1 1.7 0 3 .3 4.1 1a6 6 0 012.2 3.3c.5 1.4.8 3.4.8 5.9v3.3c0 2.5-.3 4.4-.7 6a5.8 5.8 0 01-2.3 3.2c-1 .7-2.4 1-4.2 1-1.8 0-3.2-.4-4.3-1M324.7 85.3c-.2.3-.4.9-.5 1.6l-.1 3.4v1.6h3.7v-1.6l-.1-3.4c-.1-.7-.3-1.3-.5-1.6-.3-.3-.7-.5-1.3-.5-.5 0-1 .2-1.2.5m-.6 9.7V96l.1 3.3c0 .8.3 1.3.5 1.7.3.3.7.5 1.3.5.8 0 1.3-.3 1.6-1 .3-.5.4-1.5.5-3l4.4.3v.9c0 2-.5 3.7-1.7 4.7a7 7 0 01-4.9 1.6c-2.5 0-4.3-.8-5.3-2.4a14 14 0 01-1.6-7.4v-4c0-3.5.5-6 1.6-7.6 1-1.5 2.9-2.3 5.5-2.3 1.7 0 3 .3 4 1 1 .6 1.6 1.6 2 3 .4 1.3.6 3.2.6 5.6v4h-8.6zM232 94.5l-5.8-21.2h5.1l2 9.7a91 91 0 011.2 6h.2l1.1-6 2.2-9.7h5l-5.9 21.2v10.2h-5V94.5zM272.7 81.8v23h-4l-.5-2.9c-1.2 2.1-2.8 3.2-5 3.2-1.5 0-2.7-.5-3.4-1.5-.7-1-1-2.6-1-4.7V81.8h5v16.8c0 1 .2 1.8.4 2.2.3.4.6.7 1.2.7.4 0 .8-.2 1.2-.4.5-.3.8-.7 1-1V81.7h5.1zM299.2 81.8v23h-4l-.5-2.9h-.1c-1.1 2.1-2.7 3.2-5 3.2-1.5 0-2.6-.5-3.3-1.5-.7-1-1-2.6-1-4.7V81.8h5v16.8c0 1 .2 1.8.4 2.2.2.4.6.7 1.1.7a2.6 2.6 0 002.2-1.5V81.8h5.2z"/>
  <path fill-rule="nonzero" d="M286.7 77.5h-5v27.2h-5.1V77.5h-5.2v-4.2h15.3v4.2zM311.5 94.8c0 1.7 0 3-.2 4-.1.9-.3 1.6-.7 2-.3.4-.7.6-1.3.6-.4 0-.8-.1-1.1-.3-.4-.2-.7-.5-1-1v-13l1-1.5a2 2 0 011.4-.6c.5 0 .9.2 1.2.6.3.4.5 1.1.6 2.1l.1 4.2v3zm4.8-9.3a5.9 5.9 0 00-1.5-3.2 4 4 0 00-3-1c-.9 0-1.7.3-2.6.8-.8.6-1.4 1.3-1.9 2.2V72.2h-5v32.5h4.3l.5-2.1h.1c.4.7 1 1.3 1.8 1.8.8.4 1.7.7 2.7.7a4 4 0 003.8-2.5c.8-1.6 1.2-4 1.2-7.5v-3.6c0-2.6-.1-4.6-.4-6M220 76.5c-.7-2.3-2.5-4-4.7-4.7-4-1-20.4-1-20.4-1s-16.4 0-20.5 1c-2.2.6-4 2.4-4.6 4.7-1 4-1 12.5-1 12.5s0 8.6 1 12.6c.6 2.3 2.4 4 4.6 4.7 4.1 1 20.5 1 20.5 1s16.3 0 20.4-1c2.2-.6 4-2.4 4.6-4.7C221 97.6 221 89 221 89s0-8.5-1-12.5"/>
  <path fill="#fff" fill-rule="nonzero" d="M189.6 96.9V81.2l13.6 7.8-13.6 7.9z"/>
</svg>
