<svg xmlns="http://www.w3.org/2000/svg" fill="none" viewBox="0 0 89 116">
  <defs/>
  <rect width="89" height="89" y="27" fill="#686868" rx="28"/>
  <path fill="#F8FFF8" d="M17.5 69.7c-1 0-2 .1-2.7.3-.7 0-1.4.3-1.9.5-.4.2-.8.5-1 .8-.3.3-.4.6-.4 1s0 .7.2 1l.5.6.7.4.8.1 1.2-.1a4.6 4.6 0 001.8-1l.8-.7v-2.9zm-6.4-4a5 5 0 015.5-1.5c.4.1.8.4 1 .8.3.3.6.7.7 1.2l.2 1.7V75h-.4c-.2 0-.4-.1-.4-.3l-.2-1.4a11 11 0 01-1.8 1.4 4.8 4.8 0 01-3.4.3l-.9-.5c-.3-.2-.5-.5-.7-.9l-.2-1.3c0-.4.1-.8.4-1.2.3-.4.7-.8 1.2-1 .6-.4 1.3-.6 2.2-.8.9-.2 2-.3 3.2-.3V68c0-1-.2-1.8-.7-2.4-.4-.5-1-.8-1.9-.8a3.7 3.7 0 00-2.3.7 6 6 0 00-.6.5l-.4.2h-.2l-.2-.2-.1-.3zm12 7l.6.7.8.5c.2.2.5.3.8.3l1 .1c.6 0 1.1-.1 1.6-.3.5-.3.9-.6 1.2-1 .4-.5.6-1 .8-1.6l.2-2c0-1.6-.3-2.8-.9-3.5a3 3 0 00-2.6-1.2c-.7 0-1.4.2-2 .6l-1.5 1.5v5.8zm0-6.7c.4-.6 1-1.2 1.6-1.5.7-.4 1.4-.6 2.2-.6 1.4 0 2.4.4 3.2 1.4.7.9 1 2.3 1 4.2 0 .8 0 1.5-.2 2.2-.2.7-.5 1.3-1 1.8a4.3 4.3 0 01-3.5 1.6c-.7 0-1.4 0-2-.4a4 4 0 01-1.3-1.2V79h-1V64h.5c.2 0 .3 0 .3.2L23 66zm12.1 6.6l.7.8.7.5c.3.2.5.3.8.3l1 .1c.6 0 1.2-.1 1.7-.3l1.2-1 .7-1.6c.2-.6.3-1.2.3-2 0-1.6-.4-2.8-1-3.5a3 3 0 00-2.5-1.2c-.8 0-1.4.2-2 .6-.6.4-1.1.9-1.6 1.5v5.8zm0-6.6c.5-.6 1-1.2 1.7-1.5.6-.4 1.4-.6 2.2-.6 1.3 0 2.3.4 3.1 1.4.8.9 1.1 2.3 1.1 4.2 0 .8 0 1.5-.3 2.2-.2.7-.5 1.3-1 1.8a4.3 4.3 0 01-3.4 1.6c-.8 0-1.4 0-2-.4a4 4 0 01-1.4-1.2V79h-1V64h.5c.2 0 .3 0 .4.2V66zm17.2 3.7c-1 0-2 .1-2.7.3-.7 0-1.3.3-1.8.5s-.9.5-1.1.8c-.2.3-.4.6-.4 1l.2 1 .5.6.7.4.8.1 1.2-.1a4.6 4.6 0 001.9-1l.7-.7v-2.9zm-6.4-4c.6-.7 1.2-1.1 1.8-1.4a5 5 0 013.7-.1c.4.1.8.4 1 .8.4.3.6.7.7 1.2.2.5.3 1 .3 1.7V75H53c-.2 0-.3-.1-.4-.3l-.1-1.4a11 11 0 01-1.9 1.4 4.8 4.8 0 01-3.3.3l-1-.5c-.2-.2-.5-.5-.6-.9-.2-.3-.3-.8-.3-1.3 0-.4.2-.8.4-1.2.3-.4.7-.8 1.3-1 .5-.4 1.3-.6 2.1-.8 1-.2 2-.3 3.2-.3V68c0-1-.2-1.8-.6-2.4-.5-.5-1.1-.8-2-.8a3.7 3.7 0 00-2.3.7 6 6 0 00-.6.5l-.4.2h-.2l-.1-.2-.2-.3zm12 7l.7.7.7.5c.3.2.5.3.8.3l1 .1c.6 0 1.2-.1 1.6-.3.5-.3 1-.6 1.3-1l.7-1.6c.2-.6.2-1.2.2-2 0-1.6-.3-2.8-.9-3.5a3 3 0 00-2.5-1.2c-.8 0-1.4.2-2 .6-.6.4-1.1.9-1.6 1.5v5.8zm0-6.7c.5-.6 1-1.2 1.7-1.5.6-.4 1.3-.6 2.2-.6 1.3 0 2.3.4 3 1.4.8.9 1.2 2.3 1.2 4.2 0 .8 0 1.5-.3 2.2-.2.7-.5 1.3-1 1.8a4.3 4.3 0 01-3.5 1.6c-.7 0-1.3 0-1.9-.4a4 4 0 01-1.4-1.2V79h-1V64h.5c.2 0 .3 0 .4.2V66zm12.2 6.6l.6.8.8.5c.2.2.5.3.8.3l.9.1c.6 0 1.2-.1 1.7-.3.5-.3.9-.6 1.2-1 .3-.5.6-1 .7-1.6.2-.6.3-1.2.3-2 0-1.6-.3-2.8-1-3.5a3 3 0 00-2.5-1.2c-.7 0-1.4.2-2 .6-.6.4-1 .9-1.5 1.5v5.8zm0-6.6c.4-.6 1-1.2 1.6-1.5.7-.4 1.4-.6 2.2-.6 1.3 0 2.4.4 3.1 1.4.8.9 1.2 2.3 1.2 4.2 0 .8-.1 1.5-.4 2.2-.2.7-.5 1.3-.9 1.8a4.3 4.3 0 01-3.5 1.6c-.8 0-1.4 0-2-.4a4 4 0 01-1.3-1.2V79H69V64h.6c.2 0 .3 0 .3.2l.1 1.7z"/>
</svg>
