<svg xmlns="http://www.w3.org/2000/svg" fill-rule="evenodd" stroke-linejoin="round" stroke-miterlimit="2" clip-rule="evenodd" viewBox="0 0 1371 2712">
  <defs/>
  <path fill="none" d="M1 0h1370v2712H1z"/>
  <path d="M1001.4 121.4c0-35.7-29-64.6-64.6-64.6H435a64.6 64.6 0 000 129.2h501.7c35.6 0 64.6-29 64.6-64.6z"/>
  <path d="M370.5 94.2h630.9v27.2H370.5zM1001.4 109.6V94.2h16c-8.9 0-16 6.9-16 15.4zM354.5 94.2h16v15.4c0-8.5-7.2-15.4-16-15.4z"/>
  <g>
    <path d="M1314 231.3a182 182 0 00-182-182H240.6a182 182 0 00-182 182v2249.4a182 182 0 00182 182H1132a182 182 0 00182-182V231.3zm-45 0a137 137 0 00-137-137H240.6a137 137 0 00-137 137v2249.4a137 137 0 00137 137H1132a137 137 0 00137-137V231.3z"/>
  </g>
</svg>
