<?xml version="1.0" encoding="UTF-8" standalone="no"?>
<!DOCTYPE svg PUBLIC "-//W3C//DTD SVG 1.1//EN" "http://www.w3.org/Graphics/SVG/1.1/DTD/svg11.dtd">
<svg width="100%" height="100%" viewBox="0 0 420 420" version="1.1" xmlns="http://www.w3.org/2000/svg" xmlns:xlink="http://www.w3.org/1999/xlink" xml:space="preserve" xmlns:serif="http://www.serif.com/" style="fill-rule:evenodd;clip-rule:evenodd;stroke-linecap:round;stroke-linejoin:round;stroke-miterlimit:1.5;">
    <g transform="matrix(1,0,0,1,-3300,-525)">
        <g id="logo-illes" transform="matrix(0.801527,0,0,0.850202,3335.18,945)">
            <rect x="-43" y="-494" width="524" height="494" style="fill:none;"/>
            <g transform="matrix(1.32398,0,0,1.29452,-60.3599,-525.684)">
                <path d="M405.119,112.046C405.119,65.72 366.111,28.109 318.065,28.109L103.935,28.109C55.889,28.109 16.881,65.72 16.881,112.046L16.881,318.511C16.881,364.837 55.889,402.448 103.935,402.448L318.065,402.448C366.111,402.448 405.119,364.837 405.119,318.511L405.119,112.046Z" style="fill:url(#_Linear1);"/>
            </g>
            <g transform="matrix(2.18471,0,0,1.3203,-1035.07,-449.066)">
                <text x="507.562px" y="229.809px" style="font-family:'FiraCode-Bold', 'Fira Code', monospace;font-weight:700;font-size:216px;fill:url(#_Linear2);">Φ</text>
            </g>
            <g id="bottom" transform="matrix(1.33915,0,0,1.26248,-532.012,-2899.43)">
                <g transform="matrix(0.249391,0.143986,-0.143986,0.249391,629.168,1409.09)">
                    <path d="M350,1857L350,2321" style="fill:none;stroke:black;stroke-width:29.12px;"/>
                </g>
                <g transform="matrix(0.11863,0.068491,-0.068491,0.11863,539.955,1967.91)">
                    <path d="M350,1857L350,2321" style="fill:none;stroke:black;stroke-width:61.21px;"/>
                </g>
                <g transform="matrix(0.0756529,0.0436782,-0.0436782,0.0756529,676.105,1766.83)">
                    <path d="M350,1857L350,2321" style="fill:none;stroke:black;stroke-width:95.98px;"/>
                </g>
                <g transform="matrix(0.132361,0.0764187,-0.0764187,0.132361,518.212,1894.94)">
                    <path d="M350,1857L350,2321" style="fill:none;stroke:black;stroke-width:54.86px;"/>
                </g>
                <g transform="matrix(0.0670416,0.0387065,-0.0387065,0.0670416,612.42,1784.56)">
                    <path d="M350,1857L350,2321" style="fill:none;stroke:black;stroke-width:108.31px;"/>
                </g>
                <g transform="matrix(0.101218,0.0584384,-0.0584384,0.101218,482.473,1882.47)">
                    <path d="M350,1857L350,2321" style="fill:none;stroke:black;stroke-width:71.74px;"/>
                </g>
                <g transform="matrix(0.127112,0.073388,-0.073388,0.127112,598.332,1660.87)">
                    <path d="M350,1857L350,2321" style="fill:none;stroke:black;stroke-width:57.13px;"/>
                </g>
                <g transform="matrix(0.110198,0.0636229,-0.0636229,0.110198,818.941,1989.18)">
                    <path d="M350,1857L350,2321" style="fill:none;stroke:black;stroke-width:65.89px;"/>
                </g>
                <g transform="matrix(0.195454,0.112846,-0.112846,0.195454,838.89,1786.18)">
                    <path d="M350,1857L350,2321" style="fill:none;stroke:black;stroke-width:37.15px;"/>
                </g>
                <g transform="matrix(0.109748,0.0633633,-0.0633633,0.109748,818.616,1890.57)">
                    <path d="M350,1857L350,2321" style="fill:none;stroke:black;stroke-width:66.16px;"/>
                </g>
                <g transform="matrix(0.0618146,0.0356887,-0.0356887,0.0618146,649.273,2123.09)">
                    <path d="M350,1857L350,2321" style="fill:none;stroke:black;stroke-width:117.47px;"/>
                </g>
                <g transform="matrix(0.105198,0.0607364,-0.0607364,0.105198,815.331,1800.41)">
                    <path d="M350,1857L350,2321" style="fill:none;stroke:black;stroke-width:69.03px;"/>
                </g>
                <g transform="matrix(0.0521904,0.0301321,-0.0301321,0.0521904,582.121,2147.65)">
                    <path d="M350,1857L350,2321" style="fill:none;stroke:black;stroke-width:139.13px;"/>
                </g>
                <g transform="matrix(0.13392,0.0773188,-0.0773188,0.13392,817.167,1674.48)">
                    <path d="M350,1857L350,2321" style="fill:none;stroke:black;stroke-width:54.22px;"/>
                </g>
                <g transform="matrix(0.0823186,0.0475267,-0.0475267,0.0823186,554.639,2071.36)">
                    <path d="M350,1857L350,2321" style="fill:none;stroke:black;stroke-width:88.21px;"/>
                </g>
                <g transform="matrix(0.119069,0.0687446,-0.0687446,0.119069,764.924,1677.43)">
                    <path d="M350,1857L350,2321" style="fill:none;stroke:black;stroke-width:60.99px;"/>
                </g>
            </g>
        </g>
    </g>
    <defs>
        <linearGradient id="_Linear1" x1="0" y1="0" x2="1" y2="0" gradientUnits="userSpaceOnUse" gradientTransform="matrix(336.358,324.316,-336.358,324.316,50.1144,46.0885)"><stop offset="0" style="stop-color:rgb(0,211,54);stop-opacity:1"/><stop offset="1" style="stop-color:rgb(2,174,45);stop-opacity:1"/></linearGradient>
        <linearGradient id="_Linear2" x1="0" y1="0" x2="1" y2="0" gradientUnits="userSpaceOnUse" gradientTransform="matrix(85.0892,62.3598,-39.9748,132.737,530.215,120.975)"><stop offset="0" style="stop-color:black;stop-opacity:1"/><stop offset="1" style="stop-color:rgb(52,52,52);stop-opacity:1"/></linearGradient>
    </defs>
</svg>
