<svg xmlns="http://www.w3.org/2000/svg" fill-rule="evenodd" stroke-linejoin="round" stroke-miterlimit="2" clip-rule="evenodd" viewBox="0 0 500 500">
  <defs/>
  <path fill="none" d="M0 0h500v500H0z"/>
  <g fill="#030404" fill-rule="nonzero">
    <path d="M250 39.3c-57.3 0-64.5.2-87 1.3-22.5 1-37.8 4.5-51.2 9.8a103.4 103.4 0 00-37.4 24.3 103.4 103.4 0 00-24.3 37.4 154.9 154.9 0 00-9.8 51.2c-1 22.5-1.3 29.7-1.3 87s.2 64.5 1.3 87c1 22.4 4.6 37.8 9.8 51.2a103.4 103.4 0 0024.3 37.4c11.7 11.7 23.5 19 37.4 24.3 13.4 5.2 28.7 8.8 51.2 9.8 22.5 1 29.7 1.3 87 1.3s64.5-.3 87-1.3 37.8-4.6 51.2-9.8a103.4 103.4 0 0037.4-24.3c11.7-11.8 19-23.5 24.3-37.4 5.2-13.4 8.8-28.8 9.8-51.2 1-22.5 1.3-29.7 1.3-87s-.2-64.5-1.3-87c-1-22.5-4.6-37.8-9.8-51.2a103.4 103.4 0 00-24.3-37.4 103.4 103.4 0 00-37.4-24.3 154.9 154.9 0 00-51.2-9.8c-22.5-1-29.7-1.3-87-1.3zm0 38c56.3 0 63 .2 85.3 1.2 20.5 1 31.7 4.4 39.1 7.3a65.4 65.4 0 0124.3 15.8c7.4 7.4 12 14.4 15.8 24.2 2.9 7.5 6.3 18.6 7.3 39.2 1 22.3 1.2 29 1.2 85.3s-.2 63-1.2 85.2c-1 20.6-4.4 31.8-7.3 39.2a65.4 65.4 0 01-15.8 24.3 65.4 65.4 0 01-24.3 15.8c-7.4 2.9-18.6 6.3-39.1 7.2-22.3 1-29 1.3-85.3 1.3s-63-.3-85.3-1.3c-20.5-1-31.7-4.3-39.1-7.2a65.4 65.4 0 01-24.3-15.8 65.4 65.4 0 01-15.8-24.3c-2.9-7.4-6.3-18.6-7.3-39.2-1-22.2-1.2-28.9-1.2-85.2 0-56.4.2-63 1.2-85.3 1-20.6 4.4-31.7 7.3-39.2a65.4 65.4 0 0115.8-24.2c7.4-7.4 14.4-12 24.3-15.8 7.4-2.9 18.6-6.3 39.1-7.3 22.3-1 29-1.2 85.3-1.2z"/>
    <path d="M250 320.6a70.3 70.3 0 110-140.7 70.3 70.3 0 010 140.7zm0-178.7a108.4 108.4 0 100 216.7 108.4 108.4 0 000-216.7zM388 137.6a25.3 25.3 0 11-50.7 0 25.3 25.3 0 0150.7 0z"/>
  </g>
</svg>
