<svg xmlns="http://www.w3.org/2000/svg" fill-rule="evenodd" stroke-linejoin="round" stroke-miterlimit="2" clip-rule="evenodd" viewBox="0 0 500 500">
  <defs/>
  <path fill="none" d="M0 0h500v500H0z"/>
  <path d="M346.2 292.2c-5.2-2.6-30.9-15.3-35.7-17-4.8-1.8-8.3-2.6-11.7 2.6-3.5 5.2-13.5 17-16.6 20.5-3 3.5-6 3.9-11.3 1.3-5.2-2.6-22-8.2-42-26-15.6-13.8-26-31-29-36.2-3.1-5.2-.4-8 2.2-10.6 2.3-2.4 5.2-6.1 7.8-9.2 2.6-3 3.5-5.2 5.3-8.7 1.7-3.5.8-6.5-.5-9.1-1.3-2.7-11.7-28.4-16-38.8-4.3-10.2-8.6-8.8-11.8-9-3-.2-6.6-.2-10-.2-3.5 0-9.2 1.3-14 6.5-4.8 5.3-18.3 18-18.3 43.6 0 25.8 18.7 50.6 21.4 54 2.6 3.6 36.8 56.4 89.2 79 12.5 5.4 22.2 8.6 29.8 11 12.5 4 24 3.4 33 2 10-1.4 30.8-12.6 35.2-24.8 4.3-12.2 4.3-22.7 3-24.8-1.3-2.2-4.8-3.5-10-6.1M251 422.3c-31.3 0-61.9-8.4-88.6-24.2l-6.3-3.8-65.8 17.3 17.6-64.1-4.2-6.6A174 174 0 01251 74.6c46.5 0 90.1 18.1 123 51a174 174 0 01-123 296.8m147.9-321.8a207.8 207.8 0 00-148-61.3A209.4 209.4 0 0069.8 352.9L40 461.3 151 432.2a209.4 209.4 0 00248-331.6"/>
</svg>
