<svg xmlns="http://www.w3.org/2000/svg" fill-rule="evenodd" stroke-linejoin="round" stroke-miterlimit="2" clip-rule="evenodd" viewBox="0 0 89 116">
  <defs/>
  <path fill="none" d="M0 0h89v116H0z"/>
  <path fill="#e2f8ff" d="M89 28A28 28 0 0061 0H28A28 28 0 000 28v33a28 28 0 0028 28h33a28 28 0 0028-28V28z"/>
  <path fill="#c3f1ff" d="M89 37A28 28 0 0061 9H28A28 28 0 000 37v33a28 28 0 0028 28h33a28 28 0 0028-28V37z"/>
  <path fill="#a4eaff" d="M89 46a28 28 0 00-28-28H28A28 28 0 000 46v33a28 28 0 0028 28h33a28 28 0 0028-28V46z"/>
  <path fill="#686868" d="M89 55a28 28 0 00-28-28H28A28 28 0 000 55v33a28 28 0 0028 28h33a28 28 0 0028-28V55z"/>
  <text x="9.4" y="69.6" fill="#fff" font-family="'Lato-Light','Lato',sans-serif" font-size="22.1" font-weight="300" transform="matrix(1 0 0 1 0 5.3)">
    appapp
  </text>
</svg>
