<svg xmlns="http://www.w3.org/2000/svg" fill-rule="evenodd" stroke-linejoin="round" stroke-miterlimit="2" clip-rule="evenodd" viewBox="0 0 226 237">
  <defs/>
  <path fill="#2abfff" fill-rule="nonzero" d="M107.7 3.1a6 6 0 0110.6 0l17.5 32a6 6 0 007.8 2.5l33-15.5a6 6 0 018.5 6.1l-4.6 36.2a6 6 0 004.8 6.7l35.8 6.7a6 6 0 013.3 10l-25 26.6a6 6 0 000 8.2l25 26.6a6 6 0 01-3.3 10l-35.8 6.8a6 6 0 00-4.8 6.6l4.6 36.2a6 6 0 01-8.5 6.2l-33-15.6a6 6 0 00-7.8 2.5l-17.5 32a6 6 0 01-10.6 0l-17.5-32a6 6 0 00-7.8-2.5l-33 15.6a6 6 0 01-8.5-6.2l4.6-36.2a6 6 0 00-4.8-6.6L5 159.2a6 6 0 01-3.3-10l25-26.6a6 6 0 000-8.2l-25-26.5a6 6 0 013.3-10L40.7 71a6 6 0 004.8-6.7L41 28.2a6 6 0 018.5-6.1l33 15.5a6 6 0 007.8-2.5l17.5-32z"/>
  <text x="97.4" y="130.4" font-family="'Lato-Medium','Lato',sans-serif" font-size="46.7" font-weight="400" transform="rotate(-15 145.3 264.4)">
    $9.99
  </text>
</svg>
